<svg xmlns="http://www.w3.org/2000/svg" viewBox="0 0 96 74.88" width="96" height="74.88" version="1.1" x="0px" y="0px">
    <title>2 Circles - X</title>
    <desc>Created with Sketch.</desc>
    <g stroke="none" stroke-width="1" fill="none" fill-rule="evenodd">
        <g transform="translate(-997.000000, -437.000000)" fill="#000" fill-rule="nonzero">
            <path
                d="M1072.5,588 C1030.8025,588 997,554.197499 997,512.5 C997,470.802501 1030.8025,437 1072.5,437 C1114.1975,437 1148,470.802501 1148,512.5 C1148,554.197499 1114.1975,588 1072.5,588 Z M1072.5,582 C1110.88379,582 1142,550.88379 1142,512.5 C1142,474.11621 1110.88379,443 1072.5,443 C1034.11621,443 1003,474.11621 1003,512.5 C1003,550.88379 1034.11621,582 1072.5,582 Z M1163.5,588 C1121.8025,588 1088,554.197499 1088,512.5 C1088,470.802501 1121.8025,437 1163.5,437 C1205.1975,437 1239,470.802501 1239,512.5 C1239,554.197499 1205.1975,588 1163.5,588 Z M1163.5,582 C1201.88379,582 1233,550.88379 1233,512.5 C1233,474.11621 1201.88379,443 1163.5,443 C1125.11621,443 1094,474.11621 1094,512.5 C1094,550.88379 1125.11621,582 1163.5,582 Z M1116.88413,453.665467 C1134.53492,467.910892 1145,489.323673 1145,512.447859 C1145,535.572045 1134.53492,556.984827 1116.88413,571.230252 L1115,572.750879 L1113.11587,571.230252 C1095.46508,556.984827 1085,535.572045 1085,512.447859 C1085,489.323673 1095.46508,467.910892 1113.11587,453.665467 L1115,452.14484 L1116.88413,453.665467 Z M1115,507.343146 L1104.3934,496.736544 L1098.73654,502.393398 L1109.34315,513 L1098.73654,523.606602 L1104.3934,529.263456 L1115,518.656854 L1125.6066,529.263456 L1131.26346,523.606602 L1120.65685,513 L1131.26346,502.393398 L1125.6066,496.736544 L1115,507.343146 Z"/>
        </g>
    </g>
</svg>
